# xmcd CD database file
#
# Track frame offsets:
#	150
#	16992
#	35840
#	58610
#	76620
#	98035
#	112367
#	130572
#	149225
#	162542
#
# Disc length: 2392 seconds
#
# Revision: 0
# Processed by: cddbd v1.5.2PL0 Copyright (c) Steve Scherf et al.
# Submitted via: CDex 1.51
#
DISCID=8a09560a
DTITLE=張明敏 - 青年人中國心
DYEAR=1997
DGENRE=Country
TTITLE0=青年人中國心
TTITLE1=漂亮的中國人
TTITLE2=風采依然
TTITLE3=有誰能夠說我錯
TTITLE4=就算清白一生又如何
TTITLE5=一樣的中國心
TTITLE6=真心幫
TTITLE7=世界怎麼變得如此冷漠
TTITLE8=童年夢
TTITLE9=給孩子的一封信
EXTD=YEAR: 1997
EXTT0=
EXTT1=
EXTT2=
EXTT3=
EXTT4=
EXTT5=
EXTT6=
EXTT7=
EXTT8=
EXTT9=
PLAYORDER=
